<?xml version="1.0" encoding="UTF-8" standalone="no"?>
<!-- Generated by IcoMoon.io -->
<svg version="1.1" xmlns="http://www.w3.org/2000/svg" width="32" height="32" viewBox="0 0 32 32">
<title>homepage</title>
  <path
     style="fill:#ffffff"
     d="M 5.3339844 0 C 2.3999844 0 1.1842379e-15 2.3990312 0 5.3320312 L 0 26.666016 C 0 29.600016 2.3999844 32 5.3339844 32 L 26.666016 32 C 29.602016 32 32 29.600016 32 26.666016 L 32 5.3320312 C 32 2.3980313 29.602016 5.9211895e-16 26.666016 0 L 5.3339844 0 z M 16 4.2636719 L 28.880859 14.261719 L 28.880859 18.339844 L 16 8.3398438 L 3.1191406 18.339844 L 3.1191406 14.261719 L 16 4.2636719 z M 16 10.730469 L 25.660156 17.976562 L 25.660156 27.636719 L 19.220703 27.636719 L 19.220703 21.197266 L 12.779297 21.197266 L 12.779297 27.636719 L 6.3398438 27.636719 L 6.3398438 17.976562 L 16 10.730469 z "
     id="path4" />
</svg>
