<svg width="612" height="612" xmlns="http://www.w3.org/2000/svg">

 <g>
  <title>background</title>
  <rect fill="none" id="canvas_background" height="402" width="582" y="-1" x="-1"/>
 </g>
 <g>
  <title>Layer 1</title>
  <rect id="svg_19" height="305" width="365" y="156.0375" x="134.3" stroke-width="1.5" stroke="#000" fill="#ffffff"/>
  <g id="svg_1">
   <g id="svg_2">
    <path id="svg_3" fill="#010002" d="m306,612c-28.152,0 -55.284,-3.672 -81.396,-11.016c-26.112,-7.347 -50.49,-17.646 -73.134,-30.906s-43.248,-29.172 -61.812,-47.736c-18.564,-18.562 -34.476,-39.168 -47.736,-61.812c-13.26,-22.646 -23.562,-47.022 -30.906,-73.135c-7.344,-26.111 -11.016,-53.243 -11.016,-81.395s3.672,-55.284 11.016,-81.396s17.646,-50.49 30.906,-73.134s29.172,-43.248 47.736,-61.812s39.168,-34.476 61.812,-47.736s47.022,-23.562 73.134,-30.906s53.244,-11.016 81.396,-11.016c42.024,0 81.702,8.058 119.034,24.174s69.768,37.944 97.308,65.484s49.368,59.976 65.484,97.308s24.174,77.01 24.174,119.034c0,28.152 -3.672,55.284 -11.016,81.396c-7.347,26.109 -17.646,50.487 -30.906,73.134c-13.26,22.644 -29.172,43.248 -47.736,61.812c-18.562,18.564 -39.168,34.479 -61.812,47.736c-22.646,13.26 -47.022,23.562 -73.136,30.906c-26.11,7.344 -53.242,11.016 -81.394,11.016zm147.492,-432.072l-290.088,0c-2.856,0 -5.304,0.918 -7.344,2.754s-3.06,4.386 -3.06,7.65l0,32.436c0,1.632 0.612,2.448 1.836,2.448l152.388,86.904l1.227,0.612c0.813,0 1.428,-0.204 1.836,-0.612l147.492,-86.904c0.813,-0.408 1.428,-0.612 1.836,-0.612c0.405,0 1.02,-0.204 1.836,-0.612c1.632,0 2.448,-0.816 2.448,-2.448l0,-31.212c0,-3.264 -1.021,-5.814 -3.063,-7.65s-4.488,-2.754 -7.344,-2.754zm-208.08,130.356c0.408,-0.408 0.612,-1.021 0.612,-1.836c0,-1.227 -0.408,-1.836 -1.224,-1.836l-87.516,-50.185c-1.224,-0.408 -2.244,-0.408 -3.06,0c-0.816,0 -1.224,0.612 -1.224,1.836l0,131.58c0,1.227 0.612,2.04 1.836,2.448l1.224,0c0.816,0 1.224,-0.204 1.224,-0.612l88.128,-81.395zm106.488,9.792c-0.408,-1.227 -1.431,-1.428 -3.063,-0.612l-33.66,19.584c-4.08,2.448 -8.361,2.448 -12.852,0l-29.376,-16.521c-1.224,-0.816 -2.244,-0.816 -3.06,0l-111.996,104.04c-0.408,0.405 -0.612,1.224 -0.612,2.445c0,0.408 0.408,1.021 1.224,1.836c2.448,0.816 4.08,1.227 4.896,1.227l287.029,0c0.816,0 1.635,-0.408 2.448,-1.227c0,-1.632 -0.204,-2.649 -0.612,-3.06l-100.366,-107.712zm110.16,-66.096l-2.445,0l-83.232,49.572c-0.813,0 -1.224,0.612 -1.224,1.836c-0.408,0.408 -0.204,1.02 0.609,1.833l83.232,89.967c0.816,0.816 1.428,1.227 1.836,1.227l1.224,0c1.227,-1.227 1.839,-2.04 1.839,-2.448l0,-139.538c-0.003,-0.817 -0.615,-1.633 -1.839,-2.449z"/>
   </g>
  </g>
  <g id="svg_4"/>
  <g id="svg_5"/>
  <g id="svg_6"/>
  <g id="svg_7"/>
  <g id="svg_8"/>
  <g id="svg_9"/>
  <g id="svg_10"/>
  <g id="svg_11"/>
  <g id="svg_12"/>
  <g id="svg_13"/>
  <g id="svg_14"/>
  <g id="svg_15"/>
  <g id="svg_16"/>
  <g id="svg_17"/>
  <g id="svg_18"/>
 </g>
</svg>