<?xml version="1.0" encoding="UTF-8" standalone="no"?>
<svg
   xmlns:dc="http://purl.org/dc/elements/1.1/"
   xmlns:cc="http://creativecommons.org/ns#"
   xmlns:rdf="http://www.w3.org/1999/02/22-rdf-syntax-ns#"
   xmlns:svg="http://www.w3.org/2000/svg"
   xmlns="http://www.w3.org/2000/svg"
   xmlns:sodipodi="http://sodipodi.sourceforge.net/DTD/sodipodi-0.dtd"
   xmlns:inkscape="http://www.inkscape.org/namespaces/inkscape"
   viewBox="0 0 300 300"
   version="1.1"
   id="svg6"
   sodipodi:docname="facebook_black.svg"
   inkscape:version="0.92.3 (2405546, 2018-03-11)">
  <metadata
     id="metadata12">
    <rdf:RDF>
      <cc:Work
         rdf:about="">
        <dc:format>image/svg+xml</dc:format>
        <dc:type
           rdf:resource="http://purl.org/dc/dcmitype/StillImage" />
        <dc:title></dc:title>
      </cc:Work>
    </rdf:RDF>
  </metadata>
  <defs
     id="defs10" />
  <sodipodi:namedview
     pagecolor="#ffffff"
     bordercolor="#666666"
     borderopacity="1"
     objecttolerance="10"
     gridtolerance="10"
     guidetolerance="10"
     inkscape:pageopacity="0"
     inkscape:pageshadow="2"
     inkscape:window-width="1687"
     inkscape:window-height="1154"
     id="namedview8"
     showgrid="false"
     inkscape:pagecheckerboard="true"
     inkscape:zoom="0.78666667"
     inkscape:cx="150"
     inkscape:cy="150"
     inkscape:window-x="0"
     inkscape:window-y="55"
     inkscape:window-maximized="0"
     inkscape:current-layer="svg6" />
  <circle
     cx="151.69"
     cy="148.96"
     r="135.04"
     id="circle2" />
  <path
     d="M128.44 242.77c.02-.47.05-.94.05-1.41v-85.19-1.09H100.1c-1.26 0-1.26 0-1.26-1.21 0-10.63.01-21.26-.02-31.89 0-.97.29-1.21 1.23-1.21 9.06.03 18.11.02 27.17.02h1.27v-1.03c.02-8.84-.05-17.67.07-26.51.1-7.11 1.48-13.99 4.58-20.44 4.21-8.76 10.82-15.01 19.8-18.75 6.01-2.49 12.29-3.66 18.76-3.56 7.42.11 14.83.44 22.24.71 1.38.05 2.75.28 4.13.35.77.04 1.03.32 1.02 1.09-.03 4.4-.01 8.8-.01 13.21 0 5.19-.02 10.38.02 15.57.01.9-.25 1.18-1.17 1.17-5.63-.04-11.26-.11-16.89.02-2.56.06-5.15.34-7.65.88-4.82 1.06-7.67 4.24-8.63 9.03-.39 1.93-.6 3.92-.62 5.88-.07 7.2-.03 14.4-.03 21.6 0 .21.03.43.05.76h32.36c1.36 0 1.38 0 1.21 1.29-.73 5.66-1.49 11.32-2.22 16.98-.61 4.73-1.2 9.46-1.77 14.2-.22 1.81-.17 1.81-1.99 1.81h-27.64v85.61c0 .69-.01 1.38-.02 2.07-11.88.04-23.77.04-35.65.04z"
     fill="#fff"
     id="path4" />
</svg>
