<?xml version="1.0" encoding="UTF-8" standalone="no"?>
<!-- Generated by IcoMoon.io -->
<svg version="1.1" xmlns="http://www.w3.org/2000/svg" width="32" height="32" viewBox="0 0 32 32">
  <title>github</title>
  <path
     style="fill:#ffffff"
     d="M 5.3339844 0 C 2.3999844 0 -5.9211895e-16 2.3990313 0 5.3320312 L 0 26.666016 C 0 29.600016 2.3999844 32 5.3339844 32 L 26.666016 32 C 29.602016 32 32 29.600016 32 26.666016 L 32 5.3320312 C 32 2.3980313 29.602016 -5.9211895e-16 26.666016 0 L 5.3339844 0 z M 7.8535156 4.4804688 C 8.3748125 4.4565625 9.7033438 4.6017969 11.996094 6.1542969 C 13.272094 5.7992969 14.641953 5.6222344 16.001953 5.6152344 C 17.360953 5.6212344 18.730766 5.7992969 20.009766 6.1542969 C 23.063766 4.0842969 24.404297 4.5136719 24.404297 4.5136719 C 25.275297 6.7176719 24.726547 8.3450469 24.560547 8.7480469 C 25.586547 9.8680469 26.207031 11.295969 26.207031 13.042969 C 26.207031 19.187969 22.465344 20.542453 18.902344 20.939453 C 19.476344 21.436453 19.986328 22.409344 19.986328 23.902344 C 19.986328 26.043344 19.96875 27.765969 19.96875 28.292969 C 20.780864 29.219284 19.622499 29.505901 16 29.486328 C 12.556823 29.490128 11.243971 29.271385 12.035156 28.292969 C 12.035156 27.911969 12.020672 26.651453 12.013672 25.314453 C 7.5616719 26.282453 6.6230469 23.425781 6.6230469 23.425781 C 5.8950469 21.576781 4.8476562 21.083984 4.8476562 21.083984 C 3.3956563 20.090984 4.9570313 20.111328 4.9570312 20.111328 C 6.5630312 20.224328 7.4082031 21.759766 7.4082031 21.759766 C 8.8352031 24.205766 11.151453 23.498844 12.064453 23.089844 C 12.207453 22.055844 12.622078 21.351172 13.080078 20.951172 C 9.5260781 20.547172 5.7910156 19.172969 5.7910156 13.042969 C 5.7910156 11.295969 6.4154531 9.8690469 7.4394531 8.7480469 C 7.2734531 8.3450469 6.7267031 6.7176719 7.5957031 4.5136719 C 7.5957031 4.5136719 7.67975 4.4884375 7.8535156 4.4804688 z "
     id="path4" />
</svg>
