<?xml version="1.0" encoding="UTF-8" standalone="no"?>
<svg
   xmlns:dc="http://purl.org/dc/elements/1.1/"
   xmlns:cc="http://creativecommons.org/ns#"
   xmlns:rdf="http://www.w3.org/1999/02/22-rdf-syntax-ns#"
   xmlns:svg="http://www.w3.org/2000/svg"
   xmlns="http://www.w3.org/2000/svg"
   xmlns:sodipodi="http://sodipodi.sourceforge.net/DTD/sodipodi-0.dtd"
   xmlns:inkscape="http://www.inkscape.org/namespaces/inkscape"
   id="Layer_1"
   viewBox="0 0 300 300"
   version="1.1"
   sodipodi:docname="github_black.svg"
   inkscape:version="0.92.3 (2405546, 2018-03-11)">
  <metadata
     id="metadata17">
    <rdf:RDF>
      <cc:Work
         rdf:about="">
        <dc:format>image/svg+xml</dc:format>
        <dc:type
           rdf:resource="http://purl.org/dc/dcmitype/StillImage" />
        <dc:title></dc:title>
      </cc:Work>
    </rdf:RDF>
  </metadata>
  <defs
     id="defs15" />
  <sodipodi:namedview
     pagecolor="#ffffff"
     bordercolor="#666666"
     borderopacity="1"
     objecttolerance="10"
     gridtolerance="10"
     guidetolerance="10"
     inkscape:pageopacity="0"
     inkscape:pageshadow="2"
     inkscape:window-width="1752"
     inkscape:window-height="1098"
     id="namedview13"
     showgrid="false"
     inkscape:pagecheckerboard="true"
     inkscape:zoom="0.78666667"
     inkscape:cx="150"
     inkscape:cy="150"
     inkscape:window-x="0"
     inkscape:window-y="55"
     inkscape:window-maximized="0"
     inkscape:current-layer="Layer_1" />
  <style
     id="style2">
    .st0{fill:#fff}
  </style>
  <circle
     cx="150"
     cy="150"
     id="circle4"
     style="stroke-width:0.99970388"
     r="135" />
  <path
     style="opacity:1;vector-effect:none;fill:#ffffff;fill-opacity:1;stroke:none;stroke-width:12.05568504;stroke-linecap:butt;stroke-linejoin:miter;stroke-miterlimit:4;stroke-dasharray:none;stroke-dashoffset:0;stroke-opacity:1"
     d="m 211.32474,67.594499 c -3.65904,-0.166708 -12.98665,0.867169 -29.09844,11.787745 -8.99672,-2.497143 -18.63222,-3.749645 -28.19167,-3.791851 -9.56649,0.04919 -19.20234,1.294708 -28.17795,3.791851 -16.12762,-10.920576 -25.47275,-11.942146 -29.139665,-11.77403 -1.222259,0.05627 -1.813483,0.233529 -1.813483,0.233529 -6.112705,15.503272 -2.266765,26.950566 -1.099091,29.785334 -7.203003,7.885323 -11.595428,17.922543 -11.595428,30.211253 0,43.11954 26.273087,52.78599 51.272577,55.6278 -3.22165,2.81368 -6.13817,7.77045 -7.14406,15.0438 -6.42221,2.87698 -22.71514,7.84959 -32.752907,-9.35603 0,0 -5.94508,-10.80057 -17.241978,-11.59543 0,0 -10.983033,-0.14279 -0.769399,6.84187 0,0 7.367533,3.46638 12.488418,16.47258 0,0 6.602496,20.09441 37.918676,13.28532 0.0492,9.40471 0.15123,18.27136 0.15123,20.95139 -5.56537,6.88238 3.66952,8.42104 27.88942,8.39431 25.48132,0.13787 33.6295,-1.87841 27.91691,-8.39431 0,-3.70702 0.12379,-15.82425 0.12379,-30.88442 0,-10.50204 -3.58728,-17.34553 -7.62491,-20.84152 25.0628,-2.79257 51.38253,-12.3203 51.38253,-55.54536 0,-12.28871 -4.36464,-22.33296 -11.58171,-30.211253 1.16767,-2.834768 5.02768,-14.282062 -1.09909,-29.785334 0,0 -0.59369,-0.191324 -1.81348,-0.247598 z"
     id="rect818"
     inkscape:connector-curvature="0"
     sodipodi:nodetypes="ccccsccsccccccccccscsccsc" />
</svg>
