<?xml version="1.0" encoding="UTF-8" standalone="no"?>
<svg
   xmlns:dc="http://purl.org/dc/elements/1.1/"
   xmlns:cc="http://creativecommons.org/ns#"
   xmlns:rdf="http://www.w3.org/1999/02/22-rdf-syntax-ns#"
   xmlns:svg="http://www.w3.org/2000/svg"
   xmlns="http://www.w3.org/2000/svg"
   xmlns:sodipodi="http://sodipodi.sourceforge.net/DTD/sodipodi-0.dtd"
   xmlns:inkscape="http://www.inkscape.org/namespaces/inkscape"
   id="Layer_1"
   viewBox="0 0 300 300"
   version="1.1"
   sodipodi:docname="instagram_black.svg"
   inkscape:version="0.92.3 (2405546, 2018-03-11)">
  <metadata
     id="metadata17">
    <rdf:RDF>
      <cc:Work
         rdf:about="">
        <dc:format>image/svg+xml</dc:format>
        <dc:type
           rdf:resource="http://purl.org/dc/dcmitype/StillImage" />
        <dc:title></dc:title>
      </cc:Work>
    </rdf:RDF>
  </metadata>
  <defs
     id="defs15" />
  <sodipodi:namedview
     pagecolor="#ffffff"
     bordercolor="#666666"
     borderopacity="1"
     objecttolerance="10"
     gridtolerance="10"
     guidetolerance="10"
     inkscape:pageopacity="0"
     inkscape:pageshadow="2"
     inkscape:window-width="1752"
     inkscape:window-height="1098"
     id="namedview13"
     showgrid="false"
     inkscape:pagecheckerboard="true"
     inkscape:zoom="0.78666667"
     inkscape:cx="150"
     inkscape:cy="150"
     inkscape:window-x="0"
     inkscape:window-y="55"
     inkscape:window-maximized="0"
     inkscape:current-layer="Layer_1" />
  <style
     id="style2">
    .st0{fill:#fff}
  </style>
  <circle
     cx="150"
     cy="150"
     id="circle4"
     style="stroke-width:0.99970388"
     r="135" />
  <path
     inkscape:connector-curvature="0"
     d="m 150.04784,80.31303 c 22.72372,0 25.41335,0.10094 34.3487,0.49944 8.30811,0.36662 12.78906,1.75872 15.78168,2.92234 3.95473,1.53023 6.80915,3.3899 9.76456,6.34412 2.99262,2.9914 4.81584,5.81277 6.37858,9.7659 1.1641,2.9914 2.55676,7.50241 2.92353,15.77526 0.39866,8.96891 0.49965,11.65745 0.49965,34.34007 0,22.6826 -0.10099,25.40303 -0.49965,34.34004 -0.36677,8.30474 -1.75943,12.78388 -2.92353,15.77528 -1.53085,3.95312 -3.38596,6.80638 -6.34669,9.76059 -2.99262,2.99141 -5.81514,4.81387 -9.76456,6.376 -2.99261,1.16361 -7.51078,2.5557 -15.78168,2.92232 -8.97255,0.3985 -11.66219,0.49946 -34.35401,0.49946 -22.69184,0 -25.41336,-0.10096 -34.35401,-0.49946 -8.30811,-0.36662 -12.78908,-1.75871 -15.7817,-2.92232 -3.95472,-1.53025 -6.80914,-3.38459 -9.76987,-6.34412 -2.99261,-2.9914 -4.81583,-5.81278 -6.37859,-9.76059 -1.16408,-2.99141 -2.55674,-7.50774 -2.92351,-15.77528 -0.39866,-8.96889 -0.49966,-11.65745 -0.49966,-34.34005 0,-22.68261 0.101,-25.40303 0.49966,-34.34006 0.36677,-8.30473 1.75943,-12.78386 2.92351,-15.77526 1.53087,-3.95312 3.39128,-6.80638 6.3467,-9.76591 2.99262,-2.9914 5.81514,-4.81388 9.76987,-6.37599 2.99263,-1.16362 7.50548,-2.55572 15.78169,-2.92234 8.93534,-0.3985 11.6303,-0.49944 34.35402,-0.49944 z m 0,-15.30772 c -23.09049,0 -25.9768,0.10096 -35.05034,0.49946 -9.03633,0.3985 -15.25014,1.85967 -20.62942,3.95312 -5.61316,2.18909 -10.3652,5.07954 -15.08004,9.82965 -4.75205,4.71825 -7.64368,9.46305 -9.83366,15.04204 -2.0943,5.41429 -3.55607,11.58838 -3.95472,20.62104 C 65.101,124.05235 65,126.93749 65,150.0186 c 0,23.0811 0.101,25.96624 0.49966,35.0361 0.39865,9.03266 1.86042,15.24394 3.95472,20.62103 2.1953,5.61088 5.08161,10.36099 9.83366,15.07392 4.71484,4.71292 9.46688,7.64057 15.04815,9.79778 5.41649,2.09345 11.59308,3.55462 20.62941,3.95311 9.06823,0.3985 11.95986,0.49946 35.05035,0.49946 23.09049,0 25.98211,-0.10096 35.05034,-0.49946 9.03633,-0.39849 15.25014,-1.85966 20.62942,-3.95311 5.58126,-2.15721 10.3333,-5.07955 15.04815,-9.79778 4.71483,-4.71824 7.64367,-9.46304 9.80176,-15.04204 2.0943,-5.41429 3.55606,-11.58837 3.95472,-20.62103 0.39866,-9.06454 0.49966,-11.955 0.49966,-35.0361 0,-23.08111 -0.101,-25.96625 -0.49966,-35.0361 -0.39866,-9.03266 -1.86042,-15.24394 -3.95472,-20.62104 -2.0943,-5.64807 -4.98593,-10.39287 -9.73267,-15.1111 -4.71483,-4.71293 -9.46689,-7.64058 -15.04815,-9.79778 -5.41648,-2.09345 -11.59308,-3.55462 -20.62941,-3.95312 C 176.03527,65.10096 173.14364,65 150.05316,65 v 0 z"
     style="fill:#ffffff;stroke-width:5.31440973"
     id="path4" />
  <path
     inkscape:connector-curvature="0"
     d="m 150.04784,106.34834 c -24.11638,0 -43.68801,19.55837 -43.68801,43.67026 0,24.11189 19.56632,43.67026 43.68801,43.67026 24.12169,0 43.68801,-19.55837 43.68801,-43.67026 0,-24.10658 -19.56632,-43.67026 -43.68801,-43.67026 z m 0,71.99562 c -15.6488,0 -28.33688,-12.68291 -28.33688,-28.32536 0,-15.64244 12.68808,-28.32537 28.33688,-28.32537 15.6488,0 28.33688,12.68293 28.33688,28.32537 0,15.64245 -12.68808,28.32536 -28.33688,28.32536 z"
     style="fill:#ffffff;stroke-width:5.31440973"
     id="path6-2" />
  <path
     inkscape:connector-curvature="0"
     d="m 205.6585,104.62151 c 0,5.63213 -4.56601,10.19628 -10.20043,10.19628 -5.63442,0 -10.20043,-4.56415 -10.20043,-10.19628 0,-5.63214 4.56601,-10.19629 10.20043,-10.19629 5.63442,0 10.20043,4.56415 10.20043,10.19629 z"
     style="fill:#ffffff;stroke-width:5.31440973"
     id="path8-1" />
</svg>
