<?xml version="1.0" encoding="UTF-8" standalone="no"?>
<svg
   xmlns:dc="http://purl.org/dc/elements/1.1/"
   xmlns:cc="http://creativecommons.org/ns#"
   xmlns:rdf="http://www.w3.org/1999/02/22-rdf-syntax-ns#"
   xmlns:svg="http://www.w3.org/2000/svg"
   xmlns="http://www.w3.org/2000/svg"
   xmlns:sodipodi="http://sodipodi.sourceforge.net/DTD/sodipodi-0.dtd"
   xmlns:inkscape="http://www.inkscape.org/namespaces/inkscape"
   viewBox="0 0 300 300"
   version="1.1"
   id="svg6"
   sodipodi:docname="mail_black.svg"
   inkscape:version="0.92.3 (2405546, 2018-03-11)">
  <metadata
     id="metadata12">
    <rdf:RDF>
      <cc:Work
         rdf:about="">
        <dc:format>image/svg+xml</dc:format>
        <dc:type
           rdf:resource="http://purl.org/dc/dcmitype/StillImage" />
        <dc:title></dc:title>
      </cc:Work>
    </rdf:RDF>
  </metadata>
  <defs
     id="defs10" />
  <sodipodi:namedview
     pagecolor="#ffffff"
     bordercolor="#666666"
     borderopacity="1"
     objecttolerance="10"
     gridtolerance="10"
     guidetolerance="10"
     inkscape:pageopacity="0"
     inkscape:pageshadow="2"
     inkscape:window-width="1687"
     inkscape:window-height="1154"
     id="namedview8"
     showgrid="false"
     inkscape:pagecheckerboard="true"
     inkscape:zoom="0.78666667"
     inkscape:cx="150"
     inkscape:cy="150"
     inkscape:window-x="0"
     inkscape:window-y="55"
     inkscape:window-maximized="0"
     inkscape:current-layer="svg6" />
  <circle
     cx="151.69"
     cy="148.96"
     r="135.04"
     id="circle2" />
  <path
     style="fill:#ffffff;stroke-width:7.4153409"
     d="m 86.014972,95 c -2.287752,0 -4.498722,0.424134 -6.530501,1.22181 l 70.523729,70.71504 70.52379,-70.70164 c -2.0318,-0.797395 -4.24285,-1.221736 -6.5306,-1.221736 H 86.014972 Z M 70.04795,107.90249 c -0.01598,0.28184 -0.03197,0.57055 -0.03197,0.85927 v 82.48968 H 70 c 0,1.21673 0.202377,2.40995 0.562339,3.55793 l 46.385631,-39.87546 z m 159.90487,0 -46.90126,47.03142 46.4013,39.87546 c 0.35997,-1.14798 0.54715,-2.3412 0.54715,-3.55793 h -0.016 v -82.48968 c 0,-0.28872 -0.007,-0.57743 -0.032,-0.85927 z M 127.40123,165.40625 81.874856,204.5298 C 83.21071,204.83915 84.59912,205 86.014972,205 H 214.00139 c 1.41585,0 2.80434,-0.16085 4.1402,-0.4702 l -45.52635,-39.12355 -22.60704,22.66322 z"
     id="path4"
     inkscape:connector-curvature="0"
     sodipodi:nodetypes="ccccscccsccccccccccscccsscccc" />
</svg>
