<?xml version="1.0" encoding="UTF-8" standalone="no"?>
<!-- Generated by IcoMoon.io -->
<svg version="1.1" xmlns="http://www.w3.org/2000/svg" width="32" height="32" viewBox="0 0 32 32">
<title>twitter</title>
  <path
     style="fill:#ffffff"
     d="M 5.3339844 0 C 2.3999844 0 0 2.3990312 0 5.3320312 L 0 26.666016 C 0 29.600016 2.3999844 32 5.3339844 32 L 26.666016 32 C 29.602016 32 32 29.600016 32 26.666016 L 32 5.3320312 C 32 2.3980313 29.602016 1.1842379e-15 26.666016 0 L 5.3339844 0 z M 20.746094 6.9746094 C 22.202175 6.9746094 23.517883 7.5869951 24.443359 8.5703125 C 25.595575 8.3435711 26.679513 7.9182657 27.658203 7.3398438 C 27.277987 8.5205958 26.477428 9.5136152 25.431641 10.140625 C 26.45352 10.020313 27.43365 9.7505985 28.339844 9.3457031 C 27.660391 10.362955 26.800445 11.256084 25.8125 11.964844 C 25.82255 12.181559 25.828125 12.397798 25.828125 12.619141 C 25.828125 19.309555 20.732516 27.027344 11.419922 27.027344 C 8.5609749 27.027344 5.9008879 26.193381 3.6542969 24.751953 C 4.0545649 24.800543 4.4557116 24.824219 4.8652344 24.824219 C 7.241392 24.824219 9.4190311 24.013203 11.154297 22.654297 C 8.9424114 22.610337 7.0740246 21.14459 6.4277344 19.134766 C 6.7408535 19.192616 7.0530869 19.226562 7.3808594 19.226562 C 7.843597 19.226562 8.2926208 19.164512 8.7167969 19.048828 C 6.3984816 18.586861 4.6523438 16.537265 4.6523438 14.083984 L 4.6523438 14.021484 C 5.3371954 14.397844 6.118194 14.630387 6.9472656 14.654297 C 5.5875882 13.747331 4.6953125 12.195953 4.6953125 10.441406 C 4.6953125 9.5159309 4.9447041 8.6438056 5.3789062 7.8964844 C 7.8753756 10.961349 11.606626 12.975412 15.814453 13.1875 C 15.727305 12.815767 15.685547 12.430026 15.685547 12.035156 C 15.685547 9.2394501 17.950388 6.9746094 20.746094 6.9746094 z "
     id="path4" />
</svg>
