<?xml version="1.0" encoding="UTF-8" standalone="no"?>
<svg
   xmlns:dc="http://purl.org/dc/elements/1.1/"
   xmlns:cc="http://creativecommons.org/ns#"
   xmlns:rdf="http://www.w3.org/1999/02/22-rdf-syntax-ns#"
   xmlns:svg="http://www.w3.org/2000/svg"
   xmlns="http://www.w3.org/2000/svg"
   xmlns:sodipodi="http://sodipodi.sourceforge.net/DTD/sodipodi-0.dtd"
   xmlns:inkscape="http://www.inkscape.org/namespaces/inkscape"
   id="Layer_1"
   viewBox="0 0 300 300"
   version="1.1"
   sodipodi:docname="twitter_black.svg"
   inkscape:version="0.92.3 (2405546, 2018-03-11)">
  <metadata
     id="metadata17">
    <rdf:RDF>
      <cc:Work
         rdf:about="">
        <dc:format>image/svg+xml</dc:format>
        <dc:type
           rdf:resource="http://purl.org/dc/dcmitype/StillImage" />
        <dc:title></dc:title>
      </cc:Work>
    </rdf:RDF>
  </metadata>
  <defs
     id="defs15" />
  <sodipodi:namedview
     pagecolor="#ffffff"
     bordercolor="#666666"
     borderopacity="1"
     objecttolerance="10"
     gridtolerance="10"
     guidetolerance="10"
     inkscape:pageopacity="0"
     inkscape:pageshadow="2"
     inkscape:window-width="1752"
     inkscape:window-height="1098"
     id="namedview13"
     showgrid="false"
     inkscape:pagecheckerboard="true"
     inkscape:zoom="0.78666667"
     inkscape:cx="150"
     inkscape:cy="150"
     inkscape:window-x="0"
     inkscape:window-y="55"
     inkscape:window-maximized="0"
     inkscape:current-layer="Layer_1" />
  <style
     id="style2">
    .st0{fill:#fff}
  </style>
  <circle
     cx="150"
     cy="150"
     id="circle4"
     style="stroke-width:0.99970388"
     r="135" />
  <path
     inkscape:connector-curvature="0"
     style="fill:#ffffff"
     d="m 242.59093,96.510023 a 70.794,70.794 0 0 1 -20.32,5.569997 c 7.3,-4.379997 12.92,-11.309997 15.56,-19.579997 -6.84,4.06 -14.41,7 -22.47,8.59 a 35.316,35.316 0 0 0 -25.83,-11.17 c -19.54,0 -35.39,15.84 -35.39,35.379997 0,2.77 0.31,5.47 0.92,8.06 -29.41,-1.48 -55.479996,-15.56 -72.929996,-36.969997 a 35.175,35.175 0 0 0 -4.79,17.789997 c 0,12.28 6.25,23.11 15.74,29.45 -5.8,-0.18 -11.26,-1.78 -16.03,-4.43 v 0.45 c 0,17.14 12.2,31.45 28.379996,34.7 -2.97,0.81 -6.099996,1.24 -9.319996,1.24 -2.28,0 -4.5,-0.22 -6.66,-0.63 4.5,14.06 17.569996,24.29 33.059996,24.57 -12.11,9.49 -27.369996,15.15 -43.949996,15.15 -2.86,0 -5.67,-0.17 -8.44,-0.5 15.66,10.04 34.259996,15.9 54.239996,15.9 65.09,0 100.68,-53.92 100.68,-100.68 0,-1.53 -0.03,-3.06 -0.1,-4.58 a 72.13,72.13 0 0 0 17.65,-18.309997 z"
     id="path4" />
</svg>
