<?xml version="1.0" encoding="UTF-8" standalone="no"?>
<!-- Generated by IcoMoon.io -->
<svg version="1.1" xmlns="http://www.w3.org/2000/svg" width="32" height="32" viewBox="0 0 32 32">
  <title
     id="title2">vimeo</title>
  <path
     style="fill:#ffffff"
     d="M 5.3339844 0 C 2.3999844 0 1.1842379e-15 2.3990312 0 5.3320312 L 0 26.666016 C 0 29.600016 2.3999844 32 5.3339844 32 L 26.666016 32 C 29.602016 32 32 29.600016 32 26.666016 L 32 5.3320312 C 32 2.3980313 29.602016 5.9211895e-16 26.666016 0 L 5.3339844 0 z M 24.632812 6.1523438 C 27.105812 6.2123437 28.26 7.8162188 28.125 10.949219 L 28.111328 10.958984 C 28.006328 13.296984 26.37375 16.502359 23.21875 20.568359 C 19.95075 24.815359 17.191734 26.9375 14.927734 26.9375 C 13.518734 26.9375 12.35 25.643641 11.375 23.056641 L 9.4570312 15.943359 C 8.7380316 13.359359 7.9685313 12.064453 7.1445312 12.064453 C 6.9655312 12.064453 6.3386719 12.443266 5.2636719 13.197266 L 4.1347656 11.740234 C 5.3197656 10.696234 6.4867188 9.6553281 7.6367188 8.6113281 C 9.2157188 7.2433281 10.400453 6.527125 11.189453 6.453125 C 13.056453 6.273125 14.205719 7.5530156 14.636719 10.291016 C 15.101719 13.244016 15.425422 15.080828 15.607422 15.798828 C 16.146422 18.248829 16.739766 19.472656 17.384766 19.472656 C 17.886766 19.472656 18.639437 18.676891 19.648438 17.087891 C 20.652438 15.49889 21.189719 14.289984 21.261719 13.458984 C 21.405719 12.087984 20.865484 11.398437 19.646484 11.398438 C 19.072484 11.398438 18.481094 11.519062 17.871094 11.789062 C 19.057094 7.9210625 21.304812 6.0323437 24.632812 6.1523438 z "
     id="path4" />
</svg>
