<?xml version="1.0" encoding="UTF-8" standalone="no"?>
<svg
   xmlns:dc="http://purl.org/dc/elements/1.1/"
   xmlns:cc="http://creativecommons.org/ns#"
   xmlns:rdf="http://www.w3.org/1999/02/22-rdf-syntax-ns#"
   xmlns:svg="http://www.w3.org/2000/svg"
   xmlns="http://www.w3.org/2000/svg"
   xmlns:sodipodi="http://sodipodi.sourceforge.net/DTD/sodipodi-0.dtd"
   xmlns:inkscape="http://www.inkscape.org/namespaces/inkscape"
   id="Layer_1"
   viewBox="0 0 300 300"
   version="1.1"
   sodipodi:docname="youtube_black.svg"
   inkscape:version="0.92.3 (2405546, 2018-03-11)">
  <metadata
     id="metadata17">
    <rdf:RDF>
      <cc:Work
         rdf:about="">
        <dc:format>image/svg+xml</dc:format>
        <dc:type
           rdf:resource="http://purl.org/dc/dcmitype/StillImage" />
        <dc:title></dc:title>
      </cc:Work>
    </rdf:RDF>
  </metadata>
  <defs
     id="defs15" />
  <sodipodi:namedview
     pagecolor="#ffffff"
     bordercolor="#666666"
     borderopacity="1"
     objecttolerance="10"
     gridtolerance="10"
     guidetolerance="10"
     inkscape:pageopacity="0"
     inkscape:pageshadow="2"
     inkscape:window-width="1752"
     inkscape:window-height="1098"
     id="namedview13"
     showgrid="false"
     inkscape:pagecheckerboard="true"
     inkscape:zoom="0.79"
     inkscape:cx="102.9661"
     inkscape:cy="150"
     inkscape:window-x="0"
     inkscape:window-y="55"
     inkscape:window-maximized="0"
     inkscape:current-layer="Layer_1" />
  <style
     id="style2">
    .st0{fill:#fff}
  </style>
  <circle
     cx="150"
     cy="150"
     id="circle4"
     style="stroke-width:0.99970388;fill:#000000;fill-opacity:1"
     r="135" />
  <path
     inkscape:connector-curvature="0"
     style="opacity:1;vector-effect:none;fill:#ffffff;fill-opacity:1;stroke:none;stroke-width:7.46406984;stroke-linecap:butt;stroke-linejoin:miter;stroke-miterlimit:4;stroke-dasharray:none;stroke-dashoffset:0;stroke-opacity:1"
     d="m 151.81045,80.838459 c 0,0 -37.65906,-0.0045 -62.735233,1.938586 -3.502264,0.448596 -11.126346,0.490388 -17.95715,8.111342 -5.396282,5.792063 -7.116537,18.977433 -7.116537,18.977433 0,0 -1.785516,15.46659 -1.785516,30.96583 v 14.50096 c 0,15.46339 1.785516,30.96589 1.785516,30.96589 0,0 1.75948,13.18538 7.116537,18.97745 6.830804,7.62107 15.791152,7.35015 19.78092,8.17507 14.362063,1.45845 60.975233,1.91305 60.975233,1.91305 0,0 37.68458,-0.0699 62.76075,-1.97685 3.50226,-0.4486 11.13194,-0.49039 17.95715,-8.11127 5.39068,-5.79207 7.1548,-18.97745 7.1548,-18.97745 0,0 1.7855,-15.46065 1.7855,-30.96589 v -14.50096 c -0.034,-15.46933 -1.82376,-30.96583 -1.82376,-30.96583 -1e-5,0 -1.75137,-13.18537 -7.14205,-18.977433 -6.83082,-7.621143 -14.46765,-7.663069 -17.96991,-8.111342 -25.07618,-1.942639 -62.72248,-1.938586 -62.72248,-1.938586 z m -18.4928,38.324801 48.43839,26.97391 -48.43839,26.78273 z"
     id="rect818" />
</svg>
