<?xml version="1.0" encoding="UTF-8" standalone="no"?>
<!-- Generated by IcoMoon.io -->
<svg version="1.1" xmlns="http://www.w3.org/2000/svg" width="32" height="32" viewBox="0 0 32 32">
<title>youtube</title>
  <path
     style="fill:#ffffff"
     d="M 5.3339844 0 C 2.3999844 0 1.1842379e-15 2.3990312 0 5.3320312 L 0 26.666016 C 0 29.600016 2.3999844 32 5.3339844 32 L 26.666016 32 C 29.602016 32 32 29.600016 32 26.666016 L 32 5.3320312 C 32 2.3980313 29.602016 5.9211895e-16 26.666016 0 L 5.3339844 0 z M 16.09375 5.8320312 L 16.103516 5.8320312 C 16.103516 5.8320313 21.868759 5.8314061 25.708984 6.1289062 C 26.245327 6.1975603 27.414851 6.2039763 28.460938 7.3710938 C 29.286478 8.2581027 29.554688 10.277344 29.554688 10.277344 C 29.554688 10.277344 29.828784 12.650513 29.833984 15.019531 L 29.833984 17.240234 C 29.833984 19.614743 29.560547 21.982422 29.560547 21.982422 C 29.560547 21.982422 29.290385 24.001663 28.464844 24.888672 C 27.419617 26.055795 26.251189 26.062199 25.714844 26.130859 C 21.87462 26.422863 16.103516 26.433594 16.103516 26.433594 C 16.103516 26.433594 8.965065 26.363979 6.765625 26.140625 C 6.1546217 26.014301 4.7824138 26.055791 3.7363281 24.888672 C 2.9159361 24.001663 2.6464844 21.982422 2.6464844 21.982422 C 2.6464844 21.982422 2.3730469 19.608338 2.3730469 17.240234 L 2.3730469 15.019531 C 2.3730469 12.645936 2.6464844 10.277344 2.6464844 10.277344 C 2.6464844 10.277344 2.909929 8.2581028 3.7363281 7.3710938 C 4.7824138 6.2039783 5.9499839 6.1975583 6.4863281 6.1289062 C 10.326553 5.831406 16.09375 5.8320312 16.09375 5.8320312 z M 13.261719 11.701172 L 13.261719 19.933594 L 20.679688 15.832031 L 13.261719 11.701172 z "
     id="path4" />
</svg>
