<?xml version="1.0" encoding="UTF-8" standalone="no"?>
<svg
   xmlns:dc="http://purl.org/dc/elements/1.1/"
   xmlns:cc="http://creativecommons.org/ns#"
   xmlns:rdf="http://www.w3.org/1999/02/22-rdf-syntax-ns#"
   xmlns:svg="http://www.w3.org/2000/svg"
   xmlns="http://www.w3.org/2000/svg"
   xmlns:sodipodi="http://sodipodi.sourceforge.net/DTD/sodipodi-0.dtd"
   xmlns:inkscape="http://www.inkscape.org/namespaces/inkscape"
   version="1.0"
   width="700.000000pt"
   height="700.000000pt"
   viewBox="0 0 700.000000 700.000000"
   preserveAspectRatio="xMidYMid meet"
   id="svg8"
   sodipodi:docname="safari-pinned-tab.svg"
   inkscape:version="0.92.3 (2405546, 2018-03-11)">
  <defs
     id="defs12" />
  <sodipodi:namedview
     pagecolor="#ffffff"
     bordercolor="#666666"
     borderopacity="1"
     objecttolerance="10"
     gridtolerance="10"
     guidetolerance="10"
     inkscape:pageopacity="0"
     inkscape:pageshadow="2"
     inkscape:window-width="2152"
     inkscape:window-height="1417"
     id="namedview10"
     showgrid="false"
     inkscape:pagecheckerboard="true"
     inkscape:zoom="0.715188"
     inkscape:cx="258.07921"
     inkscape:cy="364.22516"
     inkscape:window-x="0"
     inkscape:window-y="55"
     inkscape:window-maximized="0"
     inkscape:current-layer="svg8" />
  <metadata
     id="metadata2">
Created by potrace 1.11, written by Peter Selinger 2001-2013
<rdf:RDF>
  <cc:Work
     rdf:about="">
    <dc:format>image/svg+xml</dc:format>
    <dc:type
       rdf:resource="http://purl.org/dc/dcmitype/StillImage" />
    <dc:title></dc:title>
  </cc:Work>
</rdf:RDF>
</metadata>
  <path
     inkscape:connector-curvature="0"
     style="opacity:1;vector-effect:none;fill:#000000;fill-opacity:0.97094427;stroke:none;stroke-width:2.2205193;stroke-linecap:butt;stroke-linejoin:miter;stroke-miterlimit:4;stroke-dasharray:none;stroke-dashoffset:0;stroke-opacity:1"
     d="M 348.75001,2.5000048 A 348.75041,348.75043 0 0 0 0,351.25001 348.75041,348.75043 0 0 0 348.75001,700.00002 348.75041,348.75043 0 0 0 697.50002,351.25001 348.75041,348.75043 0 0 0 348.75001,2.5000048 Z m 0,51.4290012 a 297.35564,297.35566 0 0 1 195.25795,73.377004 l -390.50455,0.2046 a 297.35564,297.35566 0 0 1 195.2466,-73.563004 z m 213.36738,90.210004 a 297.35564,297.35566 0 0 1 83.98716,207.1017 297.35564,297.35566 0 0 1 -85.22025,207.97591 L 384.46806,352.40321 Z m -426.37056,0.0558 180.1573,208.2084 -179.2391,207.14821 A 297.35564,297.35566 0 0 1 51.395445,351.24071 297.35564,297.35566 0 0 1 135.74683,144.19481 Z m 327.84049,35.34 -113.00094,133.1481 -0.15568,-0.186 -0.40975,0.4743 -114.77282,-133.3248 z m -113.53213,212.3376 0.37562,0.4278 0.12513,-0.1395 113.03129,133.18531 -228.3391,-0.1209 z m -194.28665,185.47921 385.3483,0.1953 a 297.35564,297.35566 0 0 1 -192.36683,71.052 297.35564,297.35566 0 0 1 -192.98147,-71.238 z"
     id="path883" />
</svg>
