<?xml version="1.0" encoding="UTF-8" standalone="no"?>
<!-- Created with Inkscape (http://www.inkscape.org/) -->

<svg
   xmlns:dc="http://purl.org/dc/elements/1.1/"
   xmlns:cc="http://creativecommons.org/ns#"
   xmlns:rdf="http://www.w3.org/1999/02/22-rdf-syntax-ns#"
   xmlns:svg="http://www.w3.org/2000/svg"
   xmlns="http://www.w3.org/2000/svg"
   xmlns:sodipodi="http://sodipodi.sourceforge.net/DTD/sodipodi-0.dtd"
   xmlns:inkscape="http://www.inkscape.org/namespaces/inkscape"
   width="100mm"
   height="100mm"
   viewBox="0 0 100 100"
   version="1.1"
   id="svg8"
   sodipodi:docname="logo-xr.svg"
   inkscape:version="0.92.3 (2405546, 2018-03-11)">
  <defs
     id="defs2" />
  <sodipodi:namedview
     id="base"
     pagecolor="#ffffff"
     bordercolor="#666666"
     borderopacity="1.0"
     inkscape:pageopacity="0.0"
     inkscape:pageshadow="2"
     inkscape:zoom="2.8"
     inkscape:cx="134.85207"
     inkscape:cy="191.65856"
     inkscape:document-units="mm"
     inkscape:current-layer="layer1"
     showgrid="false"
     inkscape:window-width="2560"
     inkscape:window-height="1329"
     inkscape:window-x="0"
     inkscape:window-y="55"
     inkscape:window-maximized="1"
     inkscape:pagecheckerboard="true" />
  <metadata
     id="metadata5">
    <rdf:RDF>
      <cc:Work
         rdf:about="">
        <dc:format>image/svg+xml</dc:format>
        <dc:type
           rdf:resource="http://purl.org/dc/dcmitype/StillImage" />
        <dc:title></dc:title>
      </cc:Work>
    </rdf:RDF>
  </metadata>
  <g
     inkscape:label="Layer 1"
     inkscape:groupmode="layer"
     id="layer1"
     transform="translate(0,-197)">
    <path
       style="opacity:1;vector-effect:none;fill:#000000;fill-opacity:0.97094429;stroke:none;stroke-width:1.14306521;stroke-linecap:butt;stroke-linejoin:miter;stroke-miterlimit:4;stroke-dasharray:none;stroke-dashoffset:0;stroke-opacity:1"
       d="M 188.14062 9.0214844 A 179.52756 179.52756 0 0 0 8.6132812 188.54883 A 179.52756 179.52756 0 0 0 188.14062 368.07617 A 179.52756 179.52756 0 0 0 367.66797 188.54883 A 179.52756 179.52756 0 0 0 188.14062 9.0214844 z M 188.14062 35.478516 A 153.07087 153.07087 0 0 1 288.6543 73.248047 L 87.632812 73.353516 A 153.07087 153.07087 0 0 1 188.14062 35.478516 z M 297.97656 81.9375 A 153.07087 153.07087 0 0 1 341.21094 188.54883 A 153.07087 153.07087 0 0 1 297.3418 295.60938 L 206.52734 189.14648 L 297.97656 81.9375 z M 78.492188 81.966797 L 171.23242 189.14648 L 78.964844 295.78125 A 153.07087 153.07087 0 0 1 35.070312 188.54883 A 153.07087 153.07087 0 0 1 78.492188 81.966797 z M 247.25586 100.1582 L 189.08594 168.70117 L 189.00586 168.60547 L 188.79492 168.84766 L 129.71289 100.21875 L 247.25586 100.1582 z M 188.8125 209.46484 L 189.00586 209.6875 L 189.07031 209.61133 L 247.25586 278.17383 L 129.71289 278.11133 L 188.8125 209.46484 z M 88.798828 304.94336 L 287.16602 305.04688 A 153.07087 153.07087 0 0 1 188.14062 341.61914 A 153.07087 153.07087 0 0 1 88.798828 304.94336 z "
       transform="matrix(0.26458333,0,0,0.26458333,0,197)"
       id="path883" />
  </g>
</svg>
